<svg xmlns="http://www.w3.org/2000/svg" width="38.108" height="50.279" viewBox="0 0 38.108 50.279">
  <g id="Group_159" data-name="Group 159" transform="translate(1267 1101)">
    <path id="Path_145" data-name="Path 145" d="M188.553,123.38c2.733-1.457,5.111-4.006,5.465-6.685.629-4.77-2.427-8.36-6.328-10.014-4.66-1.977-1.551-.561-19.375-5.254-8.567-2.255-9.116-4.359-8.924-5.874-2.315,1.516-3.025,9.773.987,12.256,4.124,2.553,12.341,3.084,22.668,6.018C192.125,116.406,190.782,121.16,188.553,123.38Z" transform="translate(-1424.464 -1196.552)" fill="#ff3800"/>
    <path id="Path_146" data-name="Path 146" d="M190.223,187.489a12.2,12.2,0,0,0-2.565-1.142c-12.915-2.961-14.048-2.9-18.334-3.941-11.678-2.84-10.275-5.205-10.572-6.149-2.153,2.3-2.189,9.477,1.8,11.631,4.84,2.612,13.358,3.465,24.152,6.154a17.566,17.566,0,0,1,7.1,3.153c1.705,1.372,2.173,3.377.866,5.059-1.144,1.472-4.2,1.231-7.586.759a159.212,159.212,0,0,1-15.764-3.176c-9.61-2.664-10.275-5.2-10.572-6.149-2.153,2.3-2.189,9.476,1.8,11.631,3.164,1.708,6.168,2.689,12.678,3.081,4.769.287,13.43.555,17.673-3.853a12.544,12.544,0,0,0,4.395-7.236C195.934,193.309,193.737,189.574,190.223,187.489Z" transform="translate(-1424.3 -1259.26)" fill="#ff3800"/>
    <path id="Path_147" data-name="Path 147" d="M259.339,183.847h0c3.868.836,7.6,1.692,7.6,1.692l.19.063c.184-.1.366-.21.541-.323,2.228-2.22,3.57-6.973-5.507-9.553q-.94-.267-1.856-.508C262.852,176.248,266.446,181.829,259.339,183.847Z" transform="translate(-1503.582 -1258.452)" fill="#ff7a54"/>
    <path id="Path_148" data-name="Path 148" d="M267.152,261.475a6.348,6.348,0,0,1-.537.386c1.085.212,2.158.4,3.184.54,3.387.473,6.443.713,7.586-.759,1.307-1.682.839-3.687-.866-5.059-2.823-2.27-6.479-3.038-10.2-3.893C269.041,253.926,271.321,258.113,267.152,261.475Z" transform="translate(-1509.011 -1318.647)" fill="#ff7a54"/>
  </g>
</svg>
